<?xml version="1.0" encoding="utf-8"?>
<!-- Generator: Adobe Illustrator 25.0.0, SVG Export Plug-In . SVG Version: 6.00 Build 0)  -->
<svg version="1.1" id="svg3010" xmlns:svg="http://www.w3.org/2000/svg"
	 xmlns="http://www.w3.org/2000/svg" xmlns:xlink="http://www.w3.org/1999/xlink" x="0px" y="0px" viewBox="0 0 32 32" width="32" height="32"
	 style="enable-background:new 0 0 32 32;" xml:space="preserve">
<style type="text/css">
	.st0{fill:#FFFFFF;}
	.st1{fill:#1C1C1C;}
</style>
<path id="path4097" class="st0" d="M7.9,1.1c-0.3,0-0.5,0-0.8,0c0,5.8,0,11.5,0,17.3c0,3.1,0,6.1,0,9.2c1,0,2.1,0,3.1,0
	c0-0.4,0-0.9,0-1.3V26l0.2,0c0.4,0,0.9,0,1.3,0c0-0.5,0-0.9,0-1.4l0-0.3l0.3,0c0.5,0.1,0.9,0,1.4,0c0-0.4,0-0.9,0-1.3l0-0.2l0.2,0
	c0.3,0,0.7,0,1,0l0.2,0l0,0.2c-0.1,1,0.1,1.9,0,2.9c0.4,0,0.9,0,1.3,0l0.2,0l0,0.2c0,1,0,1.9,0,2.9c0.4,0,0.9,0,1.3,0H18l0,0.2
	c0,0.4,0,0.9,0,1.3c1,0,2.1,0,3.1,0c0-0.4,0.1-0.9,0-1.3l0-0.2l0.2,0c0.4,0,0.9,0,1.3,0c0-1,0-2.1,0-3.1c-0.4,0-0.9,0-1.3,0l-0.2,0
	l0-0.2c0-1,0-1.9,0-2.9c-0.4,0-0.9,0-1.3,0l-0.2,0l0-0.2c0-0.4,0-0.7,0-1.1v-0.2h0.2c2,0,4,0,6,0c0-1,0-2.1,0-3.1
	c-0.4,0-0.9,0-1.3,0l-0.2,0l0-0.2c0-0.4,0-0.9,0-1.3c-0.4,0-0.9,0-1.3,0h-0.2l0-0.2c0-0.4,0-0.9,0-1.3c-0.4,0-0.9,0-1.3,0l-0.2,0
	v-0.2c0-0.5,0-0.9,0-1.3c-0.4,0-0.9,0-1.3,0l-0.2,0v-0.2c0-0.4,0-0.9,0-1.3c-0.4,0-0.9,0-1.3,0h-0.2l0-0.2c0-0.4,0-0.9,0-1.3
	c-0.4,0-0.9,0-1.3,0l-0.2,0l0-0.2c0-0.4,0-0.9,0-1.3c-0.4,0-0.9,0-1.3,0h-0.2l0-0.2c0-0.4,0-0.9,0-1.3c-0.4,0-0.9,0-1.3,0l-0.2,0
	l0-0.2c0-0.4,0-0.9,0-1.3c-0.4,0-0.9,0-1.3,0h-0.2l0-0.2c0-0.4,0-0.9,0-1.3c-0.4,0-0.9,0-1.3,0l-0.2,0l0-0.2c0-0.4,0-0.9,0-1.3
	c-0.4,0-0.9,0-1.4,0H8.7l0-0.2c0-0.5,0-0.9,0-1.3C8.4,1.1,8.2,1.1,7.9,1.1z"/>
<path id="path3022" class="st1" d="M7.2,1.1c0.5,0,1,0,1.5,0c0,0.5,0,1,0,1.5c0.5,0,1,0,1.5,0c0,0.5,0,1,0,1.5c-0.5,0-1,0-1.6,0
	c0,7.3,0,14.5,0,21.8c0.5,0,1,0,1.5,0c0-0.5,0-1,0-1.5c0.5,0,1-0.1,1.5,0c0.1,0.5,0,1,0,1.5c-0.5,0-1,0-1.5,0c0,0.5,0,1,0,1.5
	c-1,0-2.1,0-3.1,0c0-3.1,0-6.1,0-9.2C7.2,12.6,7.1,6.8,7.2,1.1z"/>
<path id="path3024" class="st1" d="M10.3,4.2c0.5,0,1,0,1.5,0c0,0.5,0,1,0,1.5c0.5,0,1,0,1.5,0c0,0.5,0,1,0,1.5c0.5,0,1,0,1.5,0
	c0,0.5,0,1,0,1.5c0.5,0,1,0,1.5,0c0,0.5,0,1,0,1.5c0.5,0,1,0,1.5,0c0,0.5,0,1,0,1.5c0.5,0,1,0,1.5,0c0,0.5,0,1,0,1.5
	c0.5,0,1,0,1.5,0c0,0.5,0,1,0,1.5c-0.5,0-1,0-1.6,0c0-0.5,0-1,0-1.5c-0.5,0-1,0-1.6,0c0-0.5,0-1,0-1.6c-0.5,0-1,0-1.5,0
	c0-0.5,0-1,0-1.5c-0.5,0-1,0-1.6,0c0-0.5,0-1,0-1.6c-0.5,0-1,0-1.5,0c0-0.5,0-1,0-1.6c-0.5,0-1,0-1.6,0c0-0.5,0-1,0-1.5
	c-0.5,0-1,0-1.5,0C10.3,5.2,10.3,4.7,10.3,4.2z"/>
<path id="path3028" class="st1" d="M21.1,15c0.5,0,1,0,1.5,0c0,0.5,0,1,0,1.5c0.5,0,1,0,1.5,0c0,0.5,0,1,0,1.5c0.5,0,1,0,1.5,0
	c0,1,0,2.1,0,3.1c-2.1,0-4.1,0-6.2,0c0,0.5,0,1,0,1.5c-0.5,0-1,0-1.6,0c0-1,0-2.1,0-3.1c2.1,0,4.1,0,6.2,0c0-0.5,0-1,0-1.6
	c-0.5,0-1,0-1.6,0c0-0.5,0-1,0-1.5c-0.5,0-1,0-1.5,0C21.1,16.1,21.1,15.6,21.1,15z"/>
<path id="path3032" class="st1" d="M13.4,21.3c0.5,0,1,0,1.5,0c0,0.5,0,1.1,0,1.6c-0.5,0-1,0-1.5,0c0,0.5,0,1,0,1.5
	c-0.5,0-1,0.1-1.5,0c-0.1-0.5-0.1-1,0-1.5c0.5,0,1,0,1.5,0C13.4,22.3,13.4,21.8,13.4,21.3z"/>
<path id="path3034" class="st1" d="M14.9,22.9c0.5-0.1,1.1,0,1.6,0c0,1,0,2.1,0,3.1c0.5,0,1,0,1.6,0c0,1,0,2.1,0,3.1
	c1,0,2.1,0,3.1,0c0.1,0.5,0,1,0,1.6c-1,0-2.1,0-3.1,0c0-0.5,0-1,0-1.5c-0.5,0-1,0-1.5,0c0-1,0-2.1,0-3.1c-0.5,0-1,0-1.5,0
	C15,24.9,14.8,23.9,14.9,22.9z"/>
<path id="path3036" class="st1" d="M19.6,22.8c0.5,0,1,0,1.6,0c0,1,0,2.1,0,3.1c0.5,0,1,0,1.5,0c0,1,0,2.1,0,3.1c-0.5,0-1,0-1.5,0
	c-0.1-1,0-2.1,0-3.1c-0.5,0-1,0-1.6,0C19.6,24.9,19.6,23.9,19.6,22.8z"/>
</svg>
