<svg width="2260" height="1100" viewBox="0 0 2260 1100" fill="none" xmlns="http://www.w3.org/2000/svg">
<rect width="2260" height="1100" fill="white"/>
<path d="M507.825 240.166L502.079 218.93L520.384 221.448L517.568 203.44L538.804 209.187" stroke="#B4B4B4" stroke-width="10"/>
<path d="M76.9993 778.491L98.235 772.745L95.7173 791.05L113.725 788.234L107.979 809.47" stroke="#B4B4B4" stroke-width="10"/>
<path d="M703.999 74.491L725.235 68.7448L722.717 87.0501L740.725 84.2344L734.979 105.47" stroke="#B4B4B4" stroke-width="10"/>
<path d="M72.0337 111.449L71.9796 89.45L89.0094 96.6197L90.9504 78.4972L109.975 89.5437" stroke="#B4B4B4" stroke-width="10"/>
<path d="M1394.07 105.689L1387.78 84.6097L1406.14 86.6521L1402.86 68.7238L1424.24 73.9176" stroke="#B4B4B4" stroke-width="10"/>
<path d="M977.767 268.71L999.003 262.964L996.485 281.269L1014.49 278.454L1008.75 299.689" stroke="#B4B4B4" stroke-width="10"/>
<path d="M1804.03 146.449L1803.98 124.45L1821.01 131.62L1822.95 113.497L1841.98 124.544" stroke="#B4B4B4" stroke-width="10"/>
<path d="M2148.31 834.384L2135.93 852.566L2125.93 837.029L2114.09 850.885L2104.63 831.022" stroke="#B4B4B4" stroke-width="10"/>
<path d="M1492 308L1531 347" stroke="#C4C4C4" stroke-width="10"/>
<path d="M423 726L462 765" stroke="#C4C4C4" stroke-width="10"/>
<path d="M1753.29 525.617L1736.34 554.983" stroke="#C4C4C4" stroke-width="10"/>
<path d="M1753.29 525.617L1736.34 554.983" stroke="#C4C4C4" stroke-width="10"/>
<path d="M1374.16 923L1357.21 952.365" stroke="#C4C4C4" stroke-width="10"/>
<path d="M682.16 967L665.206 996.365" stroke="#C4C4C4" stroke-width="10"/>
<path d="M682.16 967L665.206 996.365" stroke="#C4C4C4" stroke-width="10"/>
<path d="M277.49 778.438L295.877 806.928" stroke="#C4C4C4" stroke-width="10"/>
<path d="M1263.05 668L1281.44 696.49" stroke="#C4C4C4" stroke-width="10"/>
<path d="M2018.05 198L2036.44 226.49" stroke="#C4C4C4" stroke-width="10"/>
<rect width="2260" height="1100" fill="url(#paint0_linear)"/>
<g filter="url(#filter0_d)">
<path fill-rule="evenodd" clip-rule="evenodd" d="M333.087 141.128H228.469C228.469 113.995 251.888 92 280.778 92C309.667 92 333.087 113.995 333.087 141.128Z" fill="#8F7EE6"/>
</g>
<g filter="url(#filter1_d)">
<path fill-rule="evenodd" clip-rule="evenodd" d="M1645.57 204.519C1663.08 204.519 1677.27 190.328 1677.27 172.824C1677.27 155.319 1663.08 141.128 1645.57 141.128C1628.06 141.128 1613.87 155.319 1613.87 172.824C1613.87 190.328 1628.06 204.519 1645.57 204.519Z" fill="#EFD131"/>
</g>
<g filter="url(#filter2_d)">
<path fill-rule="evenodd" clip-rule="evenodd" d="M1345.64 173.055H1362.29V188.111H1329V158H1345.17L1345.64 173.055Z" fill="#5AFFDE"/>
</g>
<g filter="url(#filter3_d)">
<path fill-rule="evenodd" clip-rule="evenodd" d="M177.746 633.993H153.969V611.806" fill="#FDF891"/>
</g>
<g filter="url(#filter4_d)">
<rect x="669.135" y="212.443" width="25.362" height="23.7716" fill="#5AFFDE"/>
</g>
<g filter="url(#filter5_d)">
<path fill-rule="evenodd" clip-rule="evenodd" d="M1980.25 428.484C2000.82 428.484 2017.5 411.811 2017.5 391.242C2017.5 370.674 2000.82 354 1980.25 354C1959.68 354 1943 370.674 1943 391.242C1943 411.811 1959.68 428.484 1980.25 428.484Z" fill="#49BCDF"/>
</g>
<g filter="url(#filter6_d)">
<path fill-rule="evenodd" clip-rule="evenodd" d="M1009.94 92.391C1027.45 92.391 1041.64 78.2004 1041.64 60.6955C1041.64 43.1906 1027.45 29 1009.94 29C992.428 29 978.234 43.1906 978.234 60.6955C978.234 78.2004 992.428 92.391 1009.94 92.391Z" fill="#8F7EE6"/>
</g>
<g filter="url(#filter7_d)">
<path fill-rule="evenodd" clip-rule="evenodd" d="M333.089 1008C350.598 1008 364.792 993.809 364.792 976.305C364.792 958.8 350.598 944.609 333.089 944.609C315.58 944.609 301.387 958.8 301.387 976.305C301.387 993.809 315.58 1008 333.089 1008Z" fill="#49BCDF"/>
</g>
<g filter="url(#filter8_d)">
<path fill-rule="evenodd" clip-rule="evenodd" d="M1086.81 1007.87C1067.12 1007.87 1051.15 992.255 1051.15 973H1122.48C1122.48 992.255 1106.51 1007.87 1086.81 1007.87Z" fill="#EFD131"/>
</g>
<g filter="url(#filter9_d)">
<rect x="716.688" y="811.488" width="25.362" height="23.7716" fill="#5AFFDE"/>
</g>
<g filter="url(#filter10_d)">
<path fill-rule="evenodd" clip-rule="evenodd" d="M1345 817.561C1364.26 817.561 1379.87 802.66 1379.87 784.28C1379.87 765.9 1364.26 751 1345 751V817.561Z" fill="#5AFFDE"/>
</g>
<g filter="url(#filter11_d)">
<path fill-rule="evenodd" clip-rule="evenodd" d="M1881.21 857.446C1858.45 857.446 1840 839.708 1840 817.827H1922.43C1922.43 839.708 1903.97 857.446 1881.21 857.446Z" fill="#EFD131"/>
</g>
<g filter="url(#filter12_d)">
<path d="M229.632 457.509C226.259 449.166 230.845 428.753 217.462 432.102C206.016 434.967 195.449 447.209 183.623 450.169C167.125 454.298 204.61 399.731 193.519 389.035C182.427 378.339 171.846 394.052 130.596 404.794C119.091 406.37 144.492 362.488 139.416 351.895" stroke="#EDB4D6" stroke-width="14" stroke-linecap="round" stroke-linejoin="round"/>
</g>
<g filter="url(#filter13_d)">
<path d="M1671.36 640.294C1662.59 638.247 1648.54 622.744 1643.57 635.611C1639.33 646.617 1643.25 662.303 1638.86 673.674C1632.74 689.536 1609.7 627.474 1594.57 630.38C1579.44 633.286 1586.19 650.984 1571.22 690.885C1565.88 701.197 1544.63 655.164 1533.04 653.213" stroke="#F1B8DA" stroke-width="14" stroke-linecap="round" stroke-linejoin="round"/>
</g>
<defs>
<filter id="filter0_d" x="222.469" y="92" width="110.618" height="55.128" filterUnits="userSpaceOnUse" color-interpolation-filters="sRGB">
<feFlood flood-opacity="0" result="BackgroundImageFix"/>
<feColorMatrix in="SourceAlpha" type="matrix" values="0 0 0 0 0 0 0 0 0 0 0 0 0 0 0 0 0 0 127 0"/>
<feOffset dx="-6" dy="6"/>
<feColorMatrix type="matrix" values="0 0 0 0 0 0 0 0 0 0 0 0 0 0 0 0 0 0 1 0"/>
<feBlend mode="normal" in2="BackgroundImageFix" result="effect1_dropShadow"/>
<feBlend mode="normal" in="SourceGraphic" in2="effect1_dropShadow" result="shape"/>
</filter>
<filter id="filter1_d" x="1607.87" y="141.128" width="69.405" height="69.391" filterUnits="userSpaceOnUse" color-interpolation-filters="sRGB">
<feFlood flood-opacity="0" result="BackgroundImageFix"/>
<feColorMatrix in="SourceAlpha" type="matrix" values="0 0 0 0 0 0 0 0 0 0 0 0 0 0 0 0 0 0 127 0"/>
<feOffset dx="-6" dy="6"/>
<feColorMatrix type="matrix" values="0 0 0 0 0 0 0 0 0 0 0 0 0 0 0 0 0 0 1 0"/>
<feBlend mode="normal" in2="BackgroundImageFix" result="effect1_dropShadow"/>
<feBlend mode="normal" in="SourceGraphic" in2="effect1_dropShadow" result="shape"/>
</filter>
<filter id="filter2_d" x="1323" y="158" width="39.2876" height="36.1107" filterUnits="userSpaceOnUse" color-interpolation-filters="sRGB">
<feFlood flood-opacity="0" result="BackgroundImageFix"/>
<feColorMatrix in="SourceAlpha" type="matrix" values="0 0 0 0 0 0 0 0 0 0 0 0 0 0 0 0 0 0 127 0"/>
<feOffset dx="-6" dy="6"/>
<feColorMatrix type="matrix" values="0 0 0 0 0 0 0 0 0 0 0 0 0 0 0 0 0 0 1 0"/>
<feBlend mode="normal" in2="BackgroundImageFix" result="effect1_dropShadow"/>
<feBlend mode="normal" in="SourceGraphic" in2="effect1_dropShadow" result="shape"/>
</filter>
<filter id="filter3_d" x="147.969" y="611.806" width="29.7769" height="28.1869" filterUnits="userSpaceOnUse" color-interpolation-filters="sRGB">
<feFlood flood-opacity="0" result="BackgroundImageFix"/>
<feColorMatrix in="SourceAlpha" type="matrix" values="0 0 0 0 0 0 0 0 0 0 0 0 0 0 0 0 0 0 127 0"/>
<feOffset dx="-6" dy="6"/>
<feColorMatrix type="matrix" values="0 0 0 0 0 0 0 0 0 0 0 0 0 0 0 0 0 0 1 0"/>
<feBlend mode="normal" in2="BackgroundImageFix" result="effect1_dropShadow"/>
<feBlend mode="normal" in="SourceGraphic" in2="effect1_dropShadow" result="shape"/>
</filter>
<filter id="filter4_d" x="663.135" y="212.443" width="31.362" height="29.7716" filterUnits="userSpaceOnUse" color-interpolation-filters="sRGB">
<feFlood flood-opacity="0" result="BackgroundImageFix"/>
<feColorMatrix in="SourceAlpha" type="matrix" values="0 0 0 0 0 0 0 0 0 0 0 0 0 0 0 0 0 0 127 0"/>
<feOffset dx="-6" dy="6"/>
<feColorMatrix type="matrix" values="0 0 0 0 0 0 0 0 0 0 0 0 0 0 0 0 0 0 1 0"/>
<feBlend mode="normal" in2="BackgroundImageFix" result="effect1_dropShadow"/>
<feBlend mode="normal" in="SourceGraphic" in2="effect1_dropShadow" result="shape"/>
</filter>
<filter id="filter5_d" x="1937" y="354" width="80.5009" height="80.4844" filterUnits="userSpaceOnUse" color-interpolation-filters="sRGB">
<feFlood flood-opacity="0" result="BackgroundImageFix"/>
<feColorMatrix in="SourceAlpha" type="matrix" values="0 0 0 0 0 0 0 0 0 0 0 0 0 0 0 0 0 0 127 0"/>
<feOffset dx="-6" dy="6"/>
<feColorMatrix type="matrix" values="0 0 0 0 0 0 0 0 0 0 0 0 0 0 0 0 0 0 1 0"/>
<feBlend mode="normal" in2="BackgroundImageFix" result="effect1_dropShadow"/>
<feBlend mode="normal" in="SourceGraphic" in2="effect1_dropShadow" result="shape"/>
</filter>
<filter id="filter6_d" x="972.234" y="29" width="69.405" height="69.391" filterUnits="userSpaceOnUse" color-interpolation-filters="sRGB">
<feFlood flood-opacity="0" result="BackgroundImageFix"/>
<feColorMatrix in="SourceAlpha" type="matrix" values="0 0 0 0 0 0 0 0 0 0 0 0 0 0 0 0 0 0 127 0"/>
<feOffset dx="-6" dy="6"/>
<feColorMatrix type="matrix" values="0 0 0 0 0 0 0 0 0 0 0 0 0 0 0 0 0 0 1 0"/>
<feBlend mode="normal" in2="BackgroundImageFix" result="effect1_dropShadow"/>
<feBlend mode="normal" in="SourceGraphic" in2="effect1_dropShadow" result="shape"/>
</filter>
<filter id="filter7_d" x="295.387" y="944.609" width="69.405" height="69.391" filterUnits="userSpaceOnUse" color-interpolation-filters="sRGB">
<feFlood flood-opacity="0" result="BackgroundImageFix"/>
<feColorMatrix in="SourceAlpha" type="matrix" values="0 0 0 0 0 0 0 0 0 0 0 0 0 0 0 0 0 0 127 0"/>
<feOffset dx="-6" dy="6"/>
<feColorMatrix type="matrix" values="0 0 0 0 0 0 0 0 0 0 0 0 0 0 0 0 0 0 1 0"/>
<feBlend mode="normal" in2="BackgroundImageFix" result="effect1_dropShadow"/>
<feBlend mode="normal" in="SourceGraphic" in2="effect1_dropShadow" result="shape"/>
</filter>
<filter id="filter8_d" x="1045.15" y="973" width="77.3306" height="40.8651" filterUnits="userSpaceOnUse" color-interpolation-filters="sRGB">
<feFlood flood-opacity="0" result="BackgroundImageFix"/>
<feColorMatrix in="SourceAlpha" type="matrix" values="0 0 0 0 0 0 0 0 0 0 0 0 0 0 0 0 0 0 127 0"/>
<feOffset dx="-6" dy="6"/>
<feColorMatrix type="matrix" values="0 0 0 0 0 0 0 0 0 0 0 0 0 0 0 0 0 0 1 0"/>
<feBlend mode="normal" in2="BackgroundImageFix" result="effect1_dropShadow"/>
<feBlend mode="normal" in="SourceGraphic" in2="effect1_dropShadow" result="shape"/>
</filter>
<filter id="filter9_d" x="710.688" y="811.488" width="31.362" height="29.7716" filterUnits="userSpaceOnUse" color-interpolation-filters="sRGB">
<feFlood flood-opacity="0" result="BackgroundImageFix"/>
<feColorMatrix in="SourceAlpha" type="matrix" values="0 0 0 0 0 0 0 0 0 0 0 0 0 0 0 0 0 0 127 0"/>
<feOffset dx="-6" dy="6"/>
<feColorMatrix type="matrix" values="0 0 0 0 0 0 0 0 0 0 0 0 0 0 0 0 0 0 1 0"/>
<feBlend mode="normal" in2="BackgroundImageFix" result="effect1_dropShadow"/>
<feBlend mode="normal" in="SourceGraphic" in2="effect1_dropShadow" result="shape"/>
</filter>
<filter id="filter10_d" x="1339" y="751" width="40.8728" height="72.5606" filterUnits="userSpaceOnUse" color-interpolation-filters="sRGB">
<feFlood flood-opacity="0" result="BackgroundImageFix"/>
<feColorMatrix in="SourceAlpha" type="matrix" values="0 0 0 0 0 0 0 0 0 0 0 0 0 0 0 0 0 0 127 0"/>
<feOffset dx="-6" dy="6"/>
<feColorMatrix type="matrix" values="0 0 0 0 0 0 0 0 0 0 0 0 0 0 0 0 0 0 1 0"/>
<feBlend mode="normal" in2="BackgroundImageFix" result="effect1_dropShadow"/>
<feBlend mode="normal" in="SourceGraphic" in2="effect1_dropShadow" result="shape"/>
</filter>
<filter id="filter11_d" x="1834" y="817.827" width="88.4265" height="45.6194" filterUnits="userSpaceOnUse" color-interpolation-filters="sRGB">
<feFlood flood-opacity="0" result="BackgroundImageFix"/>
<feColorMatrix in="SourceAlpha" type="matrix" values="0 0 0 0 0 0 0 0 0 0 0 0 0 0 0 0 0 0 127 0"/>
<feOffset dx="-6" dy="6"/>
<feColorMatrix type="matrix" values="0 0 0 0 0 0 0 0 0 0 0 0 0 0 0 0 0 0 1 0"/>
<feBlend mode="normal" in2="BackgroundImageFix" result="effect1_dropShadow"/>
<feBlend mode="normal" in="SourceGraphic" in2="effect1_dropShadow" result="shape"/>
</filter>
<filter id="filter12_d" x="114.572" y="344.894" width="122.063" height="125.616" filterUnits="userSpaceOnUse" color-interpolation-filters="sRGB">
<feFlood flood-opacity="0" result="BackgroundImageFix"/>
<feColorMatrix in="SourceAlpha" type="matrix" values="0 0 0 0 0 0 0 0 0 0 0 0 0 0 0 0 0 0 127 0"/>
<feOffset dx="-6" dy="6"/>
<feColorMatrix type="matrix" values="0 0 0 0 0 0 0 0 0 0 0 0 0 0 0 0 0 0 1 0"/>
<feBlend mode="normal" in2="BackgroundImageFix" result="effect1_dropShadow"/>
<feBlend mode="normal" in="SourceGraphic" in2="effect1_dropShadow" result="shape"/>
</filter>
<filter id="filter13_d" x="1520.04" y="623.279" width="158.319" height="82.1095" filterUnits="userSpaceOnUse" color-interpolation-filters="sRGB">
<feFlood flood-opacity="0" result="BackgroundImageFix"/>
<feColorMatrix in="SourceAlpha" type="matrix" values="0 0 0 0 0 0 0 0 0 0 0 0 0 0 0 0 0 0 127 0"/>
<feOffset dx="-6" dy="6"/>
<feColorMatrix type="matrix" values="0 0 0 0 0 0 0 0 0 0 0 0 0 0 0 0 0 0 1 0"/>
<feBlend mode="normal" in2="BackgroundImageFix" result="effect1_dropShadow"/>
<feBlend mode="normal" in="SourceGraphic" in2="effect1_dropShadow" result="shape"/>
</filter>
<linearGradient id="paint0_linear" x1="1130" y1="0" x2="1130" y2="1100" gradientUnits="userSpaceOnUse">
<stop stop-color="white" stop-opacity="0"/>
<stop offset="0.0001" stop-color="white" stop-opacity="0.475138"/>
<stop offset="1" stop-color="white"/>
</linearGradient>
</defs>
</svg>
