<?xml version="1.0" encoding="utf-8"?>
<!-- Generator: Adobe Illustrator 25.0.0, SVG Export Plug-In . SVG Version: 6.00 Build 0)  -->
<svg version="1.1" id="Layer_1" xmlns="http://www.w3.org/2000/svg" xmlns:xlink="http://www.w3.org/1999/xlink" x="0px" y="0px" width="32" height="32"
	 viewBox="0 0 32 32" style="enable-background:new 0 0 32 32;" xml:space="preserve">
<style type="text/css">
	.st0{fill:#FFFFFF;}
	.st1{fill:#1C1C1C;}
</style>
<path id="path4109" class="st0" d="M11.08,2c-0.01,0.37-0.01,0.74-0.01,1.11l0,0.16l-0.16,0.01c-0.37,0.01-0.74,0.02-1.11,0.02
	c-0.02,3.76-0.01,7.52-0.01,11.28v0.16l-0.16,0c-0.31,0-0.63,0.01-0.94,0.01l-0.17,0l0-0.17c0.01-0.37,0-0.73,0-1.1
	c-1.28-0.01-2.55-0.02-3.83,0c0,1.27,0,2.54,0,3.81c0.37,0.01,0.74,0.02,1.12,0l0.2-0.01l-0.03,0.2c-0.05,0.37-0.02,0.74-0.02,1.11
	c0.35,0.02,0.71,0.02,1.07,0.02h0.15l0.01,0.15c0.06,0.79,0.03,1.58,0.04,2.36c0.37,0.01,0.74,0.02,1.1,0.02l0.16,0l0,0.16
	c0.01,0.79,0,1.58,0.02,2.36c0.37,0.01,0.74,0.02,1.12,0l0.19-0.01L9.8,23.87c-0.06,0.79-0.01,1.58-0.01,2.37
	c0.36,0.01,0.72,0.01,1.08,0.01h0.16l0,0.16c0.02,1.22,0.01,2.44,0.02,3.65c2.1,0.03,4.2,0.03,6.31,0.03c2.15,0,4.3,0.01,6.46-0.04
	c-0.03-1.21,0.07-2.43,0.02-3.64l-0.01-0.17l0.17,0c0.36,0.01,0.72,0,1.08-0.01c0.01-1.21,0.01-2.42,0.02-3.62v-0.15l0.15-0.01
	c0.37-0.04,0.74-0.04,1.11-0.03c0.01-1.35-0.02-2.7,0.02-4.06v0v0c-0.04-1.62-0.01-3.25-0.03-4.88c-0.36,0-0.73,0-1.09-0.01l-0.16,0
	l0-0.16c-0.01-0.36-0.01-0.72-0.01-1.08c-0.37-0.01-0.75,0-1.12-0.02l-0.14-0.01l-0.01-0.14c-0.03-0.37-0.01-0.75-0.02-1.13
	c-0.79,0-1.59,0-2.38-0.01l-0.16,0l0-0.16c-0.01-0.36-0.01-0.72-0.01-1.08c-1.22-0.06-2.44-0.02-3.65-0.04l-0.16,0l-0.01-0.15
	c-0.02-0.37-0.02-0.74-0.02-1.11c-0.79,0-1.58,0-2.37-0.01l-0.16,0l0-0.16c-0.02-1.64-0.01-3.28-0.01-4.91c-0.21,0-0.42,0-0.63,0
	c-0.16,0-0.31,0-0.47,0l-0.17,0l0-0.17c0.01-0.38,0-0.75-0.03-1.12C12.75,2,11.91,2.01,11.08,2z"/>
<path id="path3016" class="st1" d="M11.08,2c0.84,0,1.67,0,2.51,0c0.04,0.42,0.04,0.84,0.03,1.26c-0.85,0.01-1.7,0-2.55,0.01
	C11.07,2.85,11.07,2.42,11.08,2z"/>
<path id="path3018" class="st1" d="M9.8,3.29c0.42,0,0.85,0,1.27-0.02c0,4.68,0.01,9.36,0,14.04c-0.43,0.01-0.85,0.01-1.28,0
	c-0.01-0.42-0.01-0.84,0-1.26c-0.42-0.02-0.85-0.01-1.27-0.01c-0.01-0.43-0.02-0.86,0-1.28c0.42-0.02,0.85-0.01,1.27-0.02
	C9.79,10.92,9.78,7.11,9.8,3.29z"/>
<path id="path3020" class="st1" d="M13.62,3.29c0.42-0.01,0.84,0,1.27,0c0.01,1.69-0.01,3.38,0.01,5.08
	c0.84,0.02,1.69,0.01,2.53,0.01c0,0.42,0,0.84,0.02,1.27c1.27,0.02,2.54-0.03,3.81,0.04c0,0.41,0,0.82,0.01,1.24
	c0.85,0.02,1.69,0.01,2.54,0.01c0.01,0.42-0.02,0.85,0.02,1.27c0.42,0.04,0.84,0.01,1.26,0.03c-0.01,0.41,0,0.83,0.01,1.24
	c0.42,0.01,0.83,0.01,1.25,0.01c0.02,1.63-0.01,3.25,0.03,4.88c-0.04,1.35-0.02,2.71-0.03,4.06c-0.42,0-0.84,0-1.26,0.05
	c0,1.26,0,2.52-0.02,3.78c-0.42,0.01-0.84,0.03-1.25,0.01c-0.05-1.28-0.03-2.56-0.01-3.84c0.42,0,0.84,0,1.26,0
	c0-2.98,0-5.95,0-8.93c-0.42-0.01-0.84,0-1.26,0c-0.02-0.41,0-0.83-0.03-1.24c-0.42-0.08-0.84-0.03-1.26-0.03
	c-0.01,1.28,0.01,2.55-0.01,3.83c-0.42,0-0.83,0-1.25,0c-0.03-1.7,0-3.4-0.01-5.11c-0.85,0-1.71,0-2.56,0c0,1.28,0.01,2.55,0,3.83
	c-0.42,0.01-0.85,0.01-1.27,0c-0.01-1.7-0.01-3.4,0.01-5.1c-0.85,0-1.71,0-2.56,0c-0.01,1.7,0.01,3.4,0,5.1
	c-0.43,0.01-0.85,0.01-1.28,0C13.61,10.94,13.61,7.11,13.62,3.29z"/>
<path id="path3026" class="st1" d="M4.68,13.49c1.28-0.02,2.55-0.01,3.83,0c0.01,0.42,0.02,0.85,0,1.27c-0.85,0.02-1.69,0-2.54,0.01
	c-0.03,0.84,0.05,1.69-0.01,2.53c-0.43,0.05-0.86,0.02-1.28,0.01C4.68,16.03,4.68,14.76,4.68,13.49z"/>
<path id="path3030" class="st1" d="M6,17.33c0.41-0.06,0.83-0.04,1.24-0.03c0.01,0.43,0.01,0.85,0.01,1.28c0.43,0,0.85,0,1.28,0.01
	c0.01,0.85,0,1.7,0,2.55c0.42,0,0.84,0,1.26,0c-0.01,0.85,0.05,1.71-0.03,2.55c-0.41,0.04-0.83,0.01-1.24,0
	c-0.01-0.84-0.01-1.68-0.02-2.52c-0.42,0-0.84-0.01-1.26-0.03c-0.01-0.84,0.03-1.68-0.05-2.51c-0.41,0-0.82-0.01-1.22-0.03
	C5.96,18.17,5.9,17.74,6,17.33z"/>
<path id="path3038" class="st1" d="M9.82,23.69c0.42-0.03,0.84-0.01,1.25-0.01c0.01,0.85,0,1.69,0,2.54c0.42,0,0.85,0,1.28,0.01
	c0.01,0.85-0.01,1.69,0,2.54c3.39,0.01,6.79,0.01,10.18,0c0.01-0.85,0-1.7,0.01-2.54c0.43-0.01,0.87-0.01,1.3,0.01
	c0.07,1.27-0.06,2.54-0.02,3.81c-2.15,0.05-4.3,0.03-6.46,0.04c-2.1,0-4.2,0-6.31-0.03c-0.02-1.27-0.01-2.54-0.03-3.81
	c-0.41,0-0.83-0.01-1.24-0.02C9.8,25.39,9.73,24.54,9.82,23.69z"/>
</svg>
